<svg width="32" height="32" viewBox="0 0 32 32" fill="none" xmlns="http://www.w3.org/2000/svg">
<path fill-rule="evenodd" clip-rule="evenodd" d="M31.36 16.3637C31.36 15.2292 31.2582 14.1383 31.0691 13.091H16V19.2801H24.6109C24.24 21.2801 23.1127 22.9746 21.4182 24.1092V28.1237H26.5891C29.6145 25.3383 31.36 21.2364 31.36 16.3637Z" fill="#4285F4"/>
<path fill-rule="evenodd" clip-rule="evenodd" d="M15.9999 31.9998C20.3199 31.9998 23.9417 30.5671 26.589 28.1234L21.4181 24.1089C19.9854 25.0689 18.1526 25.6362 15.9999 25.6362C11.8326 25.6362 8.30536 22.8216 7.04718 19.0398H1.70172V23.1852C4.33445 28.4143 9.74536 31.9998 15.9999 31.9998Z" fill="#34A853"/>
<path fill-rule="evenodd" clip-rule="evenodd" d="M7.04727 19.0401C6.72727 18.0801 6.54545 17.0546 6.54545 16.0001C6.54545 14.9455 6.72727 13.9201 7.04727 12.9601V8.81461H1.70182C0.618182 10.9746 0 13.4182 0 16.0001C0 18.5819 0.618182 21.0255 1.70182 23.1855L7.04727 19.0401Z" fill="#FBBC05"/>
<path fill-rule="evenodd" clip-rule="evenodd" d="M15.9999 6.36364C18.349 6.36364 20.4581 7.17091 22.1163 8.75636L26.7054 4.16727C23.9344 1.58545 20.3126 0 15.9999 0C9.74536 0 4.33445 3.58545 1.70172 8.81454L7.04718 12.96C8.30536 9.17818 11.8326 6.36364 15.9999 6.36364Z" fill="#EA4335"/>
</svg>
